<?xml version="1.0" encoding="iso-8859-1"?>
<!-- Generator: Adobe Illustrator 19.0.0, SVG Export Plug-In . SVG Version: 6.00 Build 0)  -->
<svg version="1.1" id="Layer_1" xmlns="http://www.w3.org/2000/svg" xmlns:xlink="http://www.w3.org/1999/xlink" x="0px" y="0px"
	 viewBox="0 0 512 512" style="enable-background:new 0 0 512 512;" xml:space="preserve">
<path style="fill:#F16A5D;" d="M287.755,410.929c0-16.933,4.519-32.811,12.418-46.497H66.903c-16.119,0-29.304,12.978-29.304,28.843
	v77.263h271.723C295.857,454.378,287.755,433.6,287.755,410.929z"/>
<path style="opacity:0.1;enable-background:new    ;" d="M99.312,364.432H66.903c-16.119,0-29.304,12.978-29.304,28.843v77.263
	h32.409v-77.263C70.008,377.41,83.193,364.432,99.312,364.432z"/>
<ellipse style="fill:#FFCC4D;" cx="381.074" cy="410.927" rx="93.32" ry="93.236"/>
<g>
	<path style="fill:#F4D1B0;" d="M221.24,344.702c-14.214,0-27.861-2.358-40.563-6.682v23.716c0,2.873,1.684,6.864,3.743,8.869
		l33.076,32.202c2.058,2.004,5.428,2.004,7.487-0.001l33.074-32.201c2.058-2.005,3.744-5.996,3.744-8.869V338.02
		C249.1,342.345,235.453,344.702,221.24,344.702z"/>
	<path style="fill:#F4D1B0;" d="M98.152,224.634V182.58H87.348c-8.62,0-15.673,7.053-15.673,15.673v43.232
		c0,8.62,7.053,15.673,15.673,15.673h15.378C99.748,246.814,98.152,235.907,98.152,224.634z"/>
	<path style="fill:#F4D1B0;" d="M355.132,182.58h-10.806v42.054c0,11.272-1.596,22.18-4.574,32.525h15.38
		c8.62,0,15.673-7.053,15.673-15.673v-43.232C370.806,189.633,363.752,182.58,355.132,182.58z"/>
</g>
<path style="fill:#FFEEDC;" d="M135.102,131.414l-36.949,76.158l-0.001,17.063c0,66.311,55.108,120.067,123.089,120.067
	c67.978,0,123.086-53.756,123.086-120.067v-17.063l-36.949-76.158H135.102z"/>
<path style="opacity:0.1;enable-background:new    ;" d="M130.612,224.634v-83.967l-32.459,66.904l-0.001,17.063
	c0,66.311,55.108,120.067,123.089,120.067c5.502,0,10.918-0.357,16.229-1.041C177.162,335.912,130.612,285.579,130.612,224.634z"/>
<path style="fill:#AF7F4D;" d="M135.102,131.414h172.275l36.949,76.158v-79.667c0-66.311-55.108-120.067-123.086-120.067
	c-67.981,0-123.088,53.756-123.088,120.067v79.667L135.102,131.414z"/>
<g style="opacity:0.1;">
	<path d="M130.612,127.904c0-60.944,46.549-111.277,106.858-119.027c-5.31-0.682-10.727-1.04-16.229-1.04
		c-67.981,0-123.088,53.756-123.088,120.067v79.667l32.46-66.904V127.904z"/>
</g>
<path style="opacity:0.1;enable-background:new    ;" d="M311.379,410.929c0-47.477,35.52-86.663,81.461-92.485
	c-3.854-0.485-7.776-0.747-11.761-0.747c-51.543,0-93.325,41.74-93.325,93.232c0,51.49,41.781,93.234,93.325,93.234
	c3.985,0,7.908-0.262,11.761-0.747C346.899,497.594,311.379,458.406,311.379,410.929z"/>
<path style="fill:#81D45E;" d="M431.043,399.792c0-2.896-2.37-5.264-5.265-5.264h-23.012c-2.898,0-5.267-2.368-5.267-5.261v-22.991
	c0-2.895-2.372-5.263-5.269-5.263h-22.3c-2.898,0-5.269,2.369-5.269,5.263v22.991c0,2.894-2.368,5.261-5.265,5.261h-23.012
	c-2.897,0-5.267,2.369-5.267,5.264v22.277c0,2.895,2.37,5.263,5.267,5.263h23.012c2.897,0,5.265,2.369,5.265,5.262v22.99
	c0,2.895,2.372,5.262,5.269,5.262h22.3c2.898,0,5.269-2.368,5.269-5.262v-22.99c0-2.894,2.37-5.262,5.267-5.262h23.012
	c2.896,0,5.265-2.369,5.265-5.263V399.792z"/>
<path d="M369.928,468.684h22.3c7.227,0,13.106-5.876,13.106-13.099V435.17h20.442c7.224,0,13.102-5.876,13.102-13.1v-22.277
	c0-7.223-5.878-13.101-13.102-13.101h-20.442v-20.415c0-7.223-5.88-13.1-13.106-13.1h-22.3c-7.227,0-13.106,5.876-13.106,13.1
	v20.415H336.38c-7.225,0-13.104,5.878-13.104,13.101v22.277c0,7.223,5.879,13.1,13.104,13.1h20.441v20.415
	C356.822,462.807,362.701,468.684,369.928,468.684z M338.951,419.496v-17.132h20.442c7.224,0,13.102-5.875,13.102-13.098v-20.417
	h17.166v20.417c0,7.222,5.879,13.098,13.104,13.098h20.441v17.132h-20.441c-7.225,0-13.104,5.876-13.104,13.099v20.415h-17.166
	v-20.415c0-7.222-5.878-13.099-13.102-13.099H338.951z"/>
<path d="M381.079,309.861c-35.777,0-67.275,18.654-85.266,46.735h-26.175v-13.087c14.912-5.794,28.728-14.277,40.742-25.193
	c3.204-2.91,3.441-7.866,0.531-11.07c-2.911-3.205-7.867-3.443-11.071-0.531c-21.4,19.442-49.314,30.149-78.599,30.149
	c-63.55,0-115.252-50.346-115.252-112.23v-15.261l34.021-70.123h162.46l34.021,70.121v15.263c0,22.364-6.734,43.958-19.475,62.446
	c-2.456,3.564-1.558,8.444,2.006,10.9s8.445,1.557,10.9-2.006c6.66-9.665,11.865-20.081,15.57-30.978h9.641
	c12.964,0,23.51-10.547,23.51-23.51v-43.232c0-12.963-10.546-23.51-23.51-23.51h-2.97v-46.84C352.162,57.377,293.431,0,221.24,0
	S90.316,57.377,90.316,127.904v46.84h-2.968c-12.964,0-23.51,10.547-23.51,23.51v43.232c0,12.963,10.546,23.51,23.51,23.51H97
	c12.209,35.773,40.193,64.549,75.841,78.458v13.142h-26.556c-4.328,0-7.837,3.508-7.837,7.837s3.509,7.837,7.837,7.837h29.653
	c0.874,1.485,1.882,2.848,3.016,3.952l33.077,32.202c2.467,2.402,5.738,3.725,9.21,3.725c3.473,0,6.745-1.324,9.211-3.726
	l33.075-32.202c1.134-1.104,2.141-2.467,3.015-3.951h21.077c-4.956,11.916-7.699,24.973-7.699,38.66
	c0,18.911,5.23,36.621,14.313,51.773H45.436v-69.426c0-11.583,9.63-21.007,21.467-21.007h49.08c4.328,0,7.837-3.508,7.837-7.837
	s-3.509-7.837-7.837-7.837H66.904c-20.48,0-37.141,16.454-37.141,36.68v77.263c0,4.329,3.509,7.837,7.837,7.837h268.206
	C324.341,499.001,351.218,512,381.08,512c27.237,0,52.786-10.659,71.938-30.015c3.045-3.076,3.019-8.038-0.059-11.082
	c-3.077-3.046-8.038-3.019-11.083,0.059c-16.187,16.357-37.777,25.365-60.797,25.365c-47.138,0-85.488-38.309-85.488-85.397
	c0-47.086,38.35-85.395,85.488-85.395c47.135,0,85.483,38.308,85.483,85.395c0,12.988-2.841,25.456-8.444,37.058
	c-1.883,3.897-0.249,8.583,3.649,10.466c3.897,1.884,8.583,0.249,10.465-3.649c6.639-13.746,10.005-28.507,10.005-43.874
	C482.237,355.201,436.857,309.861,381.079,309.861z M352.162,224.634v-17.063v-17.154h2.97c4.322,0,7.837,3.515,7.837,7.837v43.232
	c0,4.322-3.515,7.837-7.837,7.837h-5.423C351.324,241.249,352.162,232.991,352.162,224.634z M105.99,127.904
	c0-61.883,51.701-112.23,115.25-112.23c63.549,0,115.249,50.347,115.249,112.23v45.562l-22.062-45.473
	c-1.31-2.701-4.049-4.417-7.051-4.417h-57.292l18.77-18.77c3.06-3.062,3.06-8.023,0-11.083c-3.061-3.059-8.023-3.059-11.082,0
	l-29.853,29.853h-33.213l28.174-28.174c3.061-3.062,3.061-8.023,0-11.083c-3.061-3.059-8.023-3.059-11.082,0l-39.257,39.257h-37.439
	c-3.002,0-5.741,1.716-7.051,4.417l-22.062,45.473v-45.562H105.99z M87.348,249.322c-4.322,0-7.837-3.515-7.837-7.837v-43.232
	c0-4.322,3.515-7.837,7.837-7.837h2.968l-0.001,34.217c0,8.444,0.851,16.696,2.457,24.688H87.348z M253.965,361.731
	c-0.02,0.819-0.806,2.68-1.373,3.26l-31.351,30.524l-31.348-30.518c-0.573-0.585-1.359-2.446-1.378-3.259v-13.264
	c10.466,2.642,21.428,4.066,32.726,4.066c11.156,0,22.137-1.379,32.724-4.041L253.965,361.731L253.965,361.731z"/>
<path d="M151.822,220.284v22.003c0,4.329,3.509,7.837,7.837,7.837c4.328,0,7.837-3.508,7.837-7.837v-22.003
	c0-4.329-3.509-7.837-7.837-7.837C155.331,212.448,151.822,215.956,151.822,220.284z"/>
<path d="M274.983,220.284v22.003c0,4.329,3.509,7.837,7.837,7.837c4.328,0,7.837-3.508,7.837-7.837v-22.003
	c0-4.329-3.509-7.837-7.837-7.837C278.492,212.448,274.983,215.956,274.983,220.284z"/>
<path d="M201.418,277.97c0-4.329-3.509-7.837-7.837-7.837c-4.328,0-7.837,3.508-7.837,7.837c0,15.901,13.103,28.838,29.21,28.838
	h12.571c16.107,0,29.21-12.937,29.21-28.838c0-4.329-3.509-7.837-7.837-7.837c-4.328,0-7.837,3.508-7.837,7.837
	c0,7.259-6.073,13.165-13.537,13.165h-12.571C207.49,291.135,201.418,285.23,201.418,277.97z"/>
<path d="M219.089,215.934c-4.328,0-7.837,3.508-7.837,7.837v24.708c0,4.329,3.509,7.837,7.837,7.837h11.828
	c4.328,0,7.837-3.508,7.837-7.837c0-4.329-3.509-7.837-7.837-7.837h-3.992v-16.871C226.926,219.443,223.417,215.934,219.089,215.934
	z"/>
<g>
</g>
<g>
</g>
<g>
</g>
<g>
</g>
<g>
</g>
<g>
</g>
<g>
</g>
<g>
</g>
<g>
</g>
<g>
</g>
<g>
</g>
<g>
</g>
<g>
</g>
<g>
</g>
<g>
</g>
</svg>
